<svg width="36" height="36" viewBox="0 0 36 36" fill="none" xmlns="http://www.w3.org/2000/svg">
<rect x="0.5" y="0.5" width="35" height="35" rx="9.5" fill="#F8FAFC"/>
<path fill-rule="evenodd" clip-rule="evenodd" d="M21.4054 7.5C21.5641 8.56342 21.1283 9.60408 20.5538 10.3408C19.9383 11.1307 18.8784 11.742 17.8547 11.7099C17.668 10.692 18.1481 9.64492 18.7297 8.93908C19.3708 8.16092 20.4674 7.56417 21.4054 7.5ZM24.3215 23.1724C24.8512 22.3674 25.0478 21.9614 25.459 21.0503C22.4735 19.9215 21.9934 15.7023 24.9486 14.0823C24.0462 12.9583 22.7803 12.3078 21.5857 12.3078C20.7232 12.3078 20.1325 12.5313 19.5956 12.7344C19.1484 12.9036 18.7386 13.0586 18.2403 13.0586C17.7018 13.0586 17.2248 12.8885 16.7251 12.7104C16.1757 12.5146 15.5989 12.309 14.8832 12.309C13.5403 12.309 12.1123 13.1239 11.207 14.5181C9.93359 16.4787 10.1494 20.1677 12.2144 23.3107C12.9529 24.4353 13.9388 25.6994 15.2291 25.7111C15.7634 25.7163 16.1191 25.5578 16.5042 25.3862C16.9453 25.1897 17.4249 24.9761 18.2554 24.9714C19.0911 24.9667 19.5629 25.1827 19.9983 25.382C20.3734 25.5537 20.7215 25.713 21.252 25.7082C22.5423 25.6965 23.5836 24.2965 24.3215 23.1724Z" fill="black"/>
<rect x="0.5" y="0.5" width="35" height="35" rx="9.5" stroke="#E2E8F0"/>
</svg>
