<svg width="25" height="25" viewBox="0 0 25 25" fill="none" xmlns="http://www.w3.org/2000/svg">
<path d="M4.16663 12.5C4.16663 8.57163 4.16663 6.60745 5.38701 5.38706C6.6074 4.16667 8.57159 4.16667 12.5 4.16667C16.4283 4.16667 18.3925 4.16667 19.6129 5.38706C20.8333 6.60745 20.8333 8.57163 20.8333 12.5C20.8333 16.4284 20.8333 18.3926 19.6129 19.6129C18.3925 20.8333 16.4283 20.8333 12.5 20.8333C8.57159 20.8333 6.6074 20.8333 5.38701 19.6129C4.16663 18.3926 4.16663 16.4284 4.16663 12.5Z" stroke="white" stroke-width="1.5"/>
<path d="M15 12.5L12.5 12.5M12.5 12.5L10 12.5M12.5 12.5L12.5 10M12.5 12.5L12.5 15" stroke="white" stroke-width="1.5" stroke-linecap="round"/>
</svg>
