<svg width="20" height="20" viewBox="0 0 20 20" fill="none" xmlns="http://www.w3.org/2000/svg">
<path d="M6 7.47881C6 5.00523 7.79086 3 10 3C12.2091 3 14 5.00523 14 7.47881C14 9.93301 12.7233 12.7968 10.7315 13.8209C10.2671 14.0597 9.73287 14.0597 9.26853 13.8209C7.27666 12.7968 6 9.93301 6 7.47881Z" stroke="#326E6C" stroke-width="1.5"/>
<path d="M11.3333 8.00002C11.3333 8.7364 10.7363 9.33335 9.99996 9.33335C9.26358 9.33335 8.66663 8.7364 8.66663 8.00002C8.66663 7.26364 9.26358 6.66669 9.99996 6.66669C10.7363 6.66669 11.3333 7.26364 11.3333 8.00002Z" stroke="#326E6C" stroke-width="1.5"/>
<path d="M15.3763 12C15.7755 12.4634 16 12.9858 16 13.5385C16 15.4502 13.3137 17 10 17C6.68629 17 4 15.4502 4 13.5385C4 12.9858 4.22447 12.4634 4.62368 12" stroke="#326E6C" stroke-width="1.5" stroke-linecap="round"/>
</svg>
