<svg width="20" height="20" viewBox="0 0 20 20" fill="none" xmlns="http://www.w3.org/2000/svg">
<path d="M4 16.6667V10C4 8.74296 4 8.11442 4.39052 7.7239C4.78105 7.33337 5.40959 7.33337 6.66667 7.33337C7.92375 7.33337 8.55228 7.33337 8.94281 7.7239C9.33333 8.11442 9.33333 8.74296 9.33333 10" stroke="#326E6C"/>
<path d="M13.3333 16.6667V12.6667C13.3333 11.4096 13.3333 10.781 12.9428 10.3905C12.5522 10 11.9237 10 10.6666 10H9.33329C8.07621 10 7.44767 10 7.05715 10.3905C6.66663 10.781 6.66663 11.4096 6.66663 12.6667V16.6667" stroke="#326E6C"/>
<path d="M16 16.6667V7.18132C16 6.28742 16 5.84047 15.7625 5.49786C15.5251 5.15524 15.1066 4.99831 14.2696 4.68444C12.6328 4.07063 11.8144 3.76372 11.2405 4.16142C10.6666 4.55911 10.6666 5.43318 10.6666 7.18132V9.99998" stroke="#326E6C"/>
<path d="M4.66675 7.33333V6.33333C4.66675 5.70479 4.66675 5.39052 4.86201 5.19526C5.05727 5 5.37154 5 6.00008 5H7.33341C7.96195 5 8.27622 5 8.47149 5.19526C8.66675 5.39052 8.66675 5.70479 8.66675 6.33333V7.33333" stroke="#326E6C" stroke-linecap="round"/>
<path d="M6.66663 4.66665V3.33331" stroke="#326E6C" stroke-linecap="round"/>
<path d="M16.6667 16.6667L3.33337 16.6667" stroke="#326E6C" stroke-linecap="round"/>
<path d="M8.66663 12H11.3333" stroke="#326E6C" stroke-linecap="round"/>
<path d="M8.66663 14H11.3333" stroke="#326E6C" stroke-linecap="round"/>
</svg>
