<svg width="31" height="31" viewBox="0 0 31 31" fill="none" xmlns="http://www.w3.org/2000/svg">
<path d="M12.1972 4.08413C12.1972 3.56527 12.6179 3.14465 13.1367 3.14465H18.1472C18.6661 3.14465 19.0867 3.56527 19.0867 4.08413V5.0236H24.4104C24.9293 5.0236 25.3499 5.44422 25.3499 5.96307C25.3499 6.48193 24.9293 6.90255 24.4104 6.90255H6.87356C6.3547 6.90255 5.93408 6.48193 5.93408 5.96307C5.93408 5.44422 6.3547 5.0236 6.87356 5.0236H12.1972V4.08413Z" fill="white"/>
<path fill-rule="evenodd" clip-rule="evenodd" d="M8.42669 10.2781C8.46193 9.96093 8.73003 9.72097 9.04917 9.72097H22.2348C22.5539 9.72097 22.822 9.96093 22.8573 10.2781L23.108 12.5345C23.5599 16.6018 23.5599 20.7066 23.108 24.7739L23.0833 24.996C22.9187 26.4774 21.7706 27.6585 20.2946 27.8652C17.2079 28.2973 14.0761 28.2973 10.9894 27.8652C9.51332 27.6585 8.36525 26.4774 8.20066 24.996L8.17597 24.7739C7.72406 20.7066 7.72406 16.6018 8.17597 12.5345L8.42669 10.2781ZM14.0762 14.6062C14.0762 14.0874 13.6556 13.6668 13.1367 13.6668C12.6179 13.6668 12.1972 14.0874 12.1972 14.6062L12.1972 23.3746C12.1972 23.8935 12.6179 24.3141 13.1367 24.3141C13.6556 24.3141 14.0762 23.8935 14.0762 23.3746V14.6062ZM19.0867 14.6062C19.0867 14.0874 18.6661 13.6668 18.1472 13.6668C17.6284 13.6668 17.2078 14.0874 17.2078 14.6062V23.3746C17.2078 23.8935 17.6284 24.3141 18.1472 24.3141C18.6661 24.3141 19.0867 23.8935 19.0867 23.3746V14.6062Z" fill="white"/>
</svg>
