<svg width="20" height="20" viewBox="0 0 20 20" fill="none" xmlns="http://www.w3.org/2000/svg">
<path d="M15.3333 14.6666L15.8636 15.197C16.1565 14.9041 16.1565 14.4292 15.8636 14.1363L15.3333 14.6666ZM7.33329 4.58331C6.91908 4.58331 6.58329 4.9191 6.58329 5.33331C6.58329 5.74753 6.91908 6.08331 7.33329 6.08331V4.58331ZM14.5303 12.803C14.2374 12.5101 13.7625 12.5101 13.4696 12.803C13.1767 13.0959 13.1767 13.5708 13.4696 13.8636L14.5303 12.803ZM13.4696 15.4697C13.1767 15.7625 13.1767 16.2374 13.4696 16.5303C13.7625 16.8232 14.2374 16.8232 14.5303 16.5303L13.4696 15.4697ZM15.3333 13.9166H6.99996V15.4166H15.3333V13.9166ZM6.99996 10.75H13V9.24998H6.99996V10.75ZM13 4.58331H7.33329V6.08331H13V4.58331ZM15.8636 14.1363L14.5303 12.803L13.4696 13.8636L14.803 15.197L15.8636 14.1363ZM14.803 14.1363L13.4696 15.4697L14.5303 16.5303L15.8636 15.197L14.803 14.1363ZM16.0833 7.66665C16.0833 5.96377 14.7028 4.58331 13 4.58331V6.08331C13.8744 6.08331 14.5833 6.7922 14.5833 7.66665H16.0833ZM13 10.75C14.7028 10.75 16.0833 9.36952 16.0833 7.66665H14.5833C14.5833 8.5411 13.8744 9.24998 13 9.24998V10.75ZM5.41663 12.3333C5.41663 11.4589 6.12551 10.75 6.99996 10.75V9.24998C5.29708 9.24998 3.91663 10.6304 3.91663 12.3333H5.41663ZM6.99996 13.9166C6.12551 13.9166 5.41663 13.2078 5.41663 12.3333H3.91663C3.91663 14.0362 5.29708 15.4166 6.99996 15.4166V13.9166Z" fill="#326E6C"/>
<circle cx="5.99996" cy="5.33333" r="1.33333" stroke="#326E6C" stroke-width="1.5"/>
</svg>
