<svg width="36" height="36" viewBox="0 0 36 36" fill="none">
<rect width="36" height="36" rx="10" fill="#0C63D4"/>
<path fill-rule="evenodd" clip-rule="evenodd" d="M9 18C9 22.45 12.25 26.15 16.5 26.9L16.5502 26.8599C16.5334 26.8566 16.5167 26.8533 16.5 26.85V20.5H14.25V18H16.5V16C16.5 13.75 17.95 12.5 20 12.5C20.65 12.5 21.35 12.6 22 12.7V15H20.85C19.75 15 19.5 15.55 19.5 16.25V18H21.9L21.5 20.5H19.5V26.85C19.4833 26.8533 19.4666 26.8566 19.4498 26.8599L19.5 26.9C23.75 26.15 27 22.45 27 18C27 13.05 22.95 9 18 9C13.05 9 9 13.05 9 18Z" fill="white"/>
</svg>
