<svg width="36" height="36" viewBox="0 0 36 36" fill="none" xmlns="http://www.w3.org/2000/svg">
<rect x="0.5" y="0.5" width="35" height="35" rx="9.5" fill="#F8FAFC"/>
<path fill-rule="evenodd" clip-rule="evenodd" d="M26.4 18.1989C26.4 17.5784 26.3443 16.9818 26.2409 16.4091H18V19.7938H22.7091C22.5063 20.8875 21.8898 21.8142 20.9631 22.4347V24.6302H23.7909C25.4455 23.1069 26.4 20.8637 26.4 18.1989Z" fill="#4285F4"/>
<path fill-rule="evenodd" clip-rule="evenodd" d="M18 26.75C20.3625 26.75 22.3432 25.9665 23.7909 24.6301L20.9631 22.4347C20.1795 22.9597 19.1773 23.2699 18 23.2699C15.721 23.2699 13.792 21.7307 13.104 19.6625H10.1807V21.9296C11.6204 24.7892 14.5795 26.75 18 26.75Z" fill="#34A853"/>
<path fill-rule="evenodd" clip-rule="evenodd" d="M13.104 19.6626C12.929 19.1376 12.8296 18.5768 12.8296 18.0001C12.8296 17.4234 12.929 16.8626 13.104 16.3376V14.0705H10.1807C9.58807 15.2518 9.25 16.5881 9.25 18.0001C9.25 19.412 9.58807 20.7484 10.1807 21.9296L13.104 19.6626Z" fill="#FBBC05"/>
<path fill-rule="evenodd" clip-rule="evenodd" d="M18 12.7301C19.2847 12.7301 20.4381 13.1716 21.3449 14.0387L23.8546 11.529C22.3392 10.1171 20.3585 9.25003 18 9.25003C14.5795 9.25003 11.6204 11.2108 10.1807 14.0705L13.104 16.3375C13.792 14.2694 15.721 12.7301 18 12.7301Z" fill="#EA4335"/>
<rect x="0.5" y="0.5" width="35" height="35" rx="9.5" stroke="#E2E8F0"/>
</svg>
