<svg width="30" height="30" viewBox="0 0 30 30" fill="none" xmlns="http://www.w3.org/2000/svg">
<path d="M5 8.25732C5 6.45835 6.567 5 8.5 5C10.433 5 12 6.45835 12 8.25732C12 10.0422 10.8829 12.125 9.14003 12.8698C8.73374 13.0434 8.26626 13.0434 7.85997 12.8698C6.11708 12.125 5 10.0422 5 8.25732Z" stroke="#99B7B6" stroke-width="1.5"/>
<path d="M18 20.2573C18 18.4584 19.567 17 21.5 17C23.433 17 25 18.4584 25 20.2573C25 22.0422 23.8829 24.125 22.14 24.8698C21.7337 25.0434 21.2663 25.0434 20.86 24.8698C19.1171 24.125 18 22.0422 18 20.2573Z" stroke="#99B7B6" stroke-width="1.5"/>
<path d="M22.5 20.5C22.5 21.0523 22.0523 21.5 21.5 21.5C20.9477 21.5 20.5 21.0523 20.5 20.5C20.5 19.9477 20.9477 19.5 21.5 19.5C22.0523 19.5 22.5 19.9477 22.5 20.5Z" fill="#99B7B6"/>
<path d="M9.5 8.5C9.5 9.05228 9.05228 9.5 8.5 9.5C7.94772 9.5 7.5 9.05228 7.5 8.5C7.5 7.94772 7.94772 7.5 8.5 7.5C9.05228 7.5 9.5 7.94772 9.5 8.5Z" fill="#99B7B6"/>
<path d="M15 7.25C14.5858 7.25 14.25 7.58579 14.25 8C14.25 8.41421 14.5858 8.75 15 8.75V7.25ZM15 22L15.5303 22.5303C15.8232 22.2374 15.8232 21.7626 15.5303 21.4697L15 22ZM20.2056 11.6873L20.6083 12.3201L20.2056 11.6873ZM9.79434 18.3127L10.197 18.9454H10.197L9.79434 18.3127ZM14.0303 19.9697C13.7374 19.6768 13.2625 19.6768 12.9696 19.9697C12.6767 20.2626 12.6767 20.7374 12.9696 21.0303L14.0303 19.9697ZM12.9696 22.9697C12.6767 23.2626 12.6767 23.7374 12.9696 24.0303C13.2625 24.3232 13.7374 24.3232 14.0303 24.0303L12.9696 22.9697ZM19.1319 7.25H15V8.75H19.1319V7.25ZM15 21.25H10.8681V22.75H15V21.25ZM19.803 11.0546L9.39169 17.6799L10.197 18.9454L20.6083 12.3201L19.803 11.0546ZM15.5303 21.4697L14.0303 19.9697L12.9696 21.0303L14.4696 22.5303L15.5303 21.4697ZM14.4696 21.4697L12.9696 22.9697L14.0303 24.0303L15.5303 22.5303L14.4696 21.4697ZM10.8681 21.25C9.61754 21.25 9.14195 19.6168 10.197 18.9454L9.39169 17.6799C7.07059 19.157 8.11685 22.75 10.8681 22.75V21.25ZM19.1319 8.75C20.3824 8.75 20.858 10.3832 19.803 11.0546L20.6083 12.3201C22.9294 10.843 21.8831 7.25 19.1319 7.25V8.75Z" fill="#99B7B6"/>
</svg>
