<svg width="31" height="30" viewBox="0 0 31 30" fill="none" xmlns="http://www.w3.org/2000/svg">
<path d="M22.7462 12.7041V12C22.7462 8.13401 19.6122 5 15.7462 5C11.8802 5 8.74616 8.13401 8.74616 12V12.7041C8.74616 13.5491 8.49604 14.3752 8.02732 15.0783L6.87872 16.8012C5.82959 18.3749 6.63051 20.5139 8.45522 21.0116C13.2287 22.3134 18.2636 22.3134 23.0371 21.0116C24.8618 20.5139 25.6627 18.3749 24.6136 16.8012L23.465 15.0783C22.9963 14.3752 22.7462 13.5491 22.7462 12.7041Z" stroke="#99B7B6" stroke-width="1.5"/>
<path d="M11.2461 22C11.9011 23.7478 13.6685 25 15.7461 25C17.8236 25 19.5911 23.7478 20.2461 22" stroke="#99B7B6" stroke-width="1.5" stroke-linecap="round"/>
</svg>
