<svg width="31" height="30" viewBox="0 0 31 30" fill="none" xmlns="http://www.w3.org/2000/svg">
<circle cx="13.7461" cy="9" r="4" stroke="#99B7B6" stroke-width="1.5"/>
<path d="M21.7461 20.5C21.7461 22.9853 21.7461 25 13.7461 25C5.74609 25 5.74609 22.9853 5.74609 20.5C5.74609 18.0147 9.32782 16 13.7461 16C18.1644 16 21.7461 18.0147 21.7461 20.5Z" stroke="#99B7B6" stroke-width="1.5"/>
<path d="M21.789 15.3656L22.2326 14.7609L22.2326 14.7609L21.789 15.3656ZM22.7461 11.6913L22.2274 12.2331C22.5174 12.5108 22.9747 12.5108 23.2648 12.2331L22.7461 11.6913ZM23.7032 15.3656L23.2596 14.7609L23.2596 14.7609L23.7032 15.3656ZM22.7461 15.8276L22.7461 16.5776H22.7461L22.7461 15.8276ZM22.2326 14.7609C21.8147 14.4542 21.3542 14.0712 21.0056 13.6681C20.6373 13.2423 20.4961 12.9113 20.4961 12.6967H18.9961C18.9961 13.4666 19.4373 14.1479 19.871 14.6493C20.3243 15.1735 20.8852 15.6327 21.3453 15.9703L22.2326 14.7609ZM20.4961 12.6967C20.4961 12.1207 20.7587 11.87 20.988 11.7896C21.2383 11.7019 21.7018 11.7299 22.2274 12.2331L23.2648 11.1496C22.4404 10.3603 21.404 10.0543 20.4918 10.3741C19.5585 10.7012 18.9961 11.5995 18.9961 12.6967H20.4961ZM24.1469 15.9703C24.607 15.6327 25.1679 15.1735 25.6212 14.6493C26.0549 14.1479 26.4961 13.4666 26.4961 12.6967H24.9961C24.9961 12.9113 24.8549 13.2424 24.4866 13.6681C24.138 14.0713 23.6775 14.4542 23.2596 14.7609L24.1469 15.9703ZM26.4961 12.6967C26.4961 11.5995 25.9336 10.7012 25.0004 10.3741C24.0882 10.0543 23.0518 10.3603 22.2274 11.1496L23.2648 12.2331C23.7903 11.7299 24.2539 11.7019 24.5042 11.7896C24.7335 11.87 24.9961 12.1207 24.9961 12.6967H26.4961ZM21.3453 15.9703C21.7139 16.2407 22.1277 16.5776 22.7461 16.5776L22.7461 15.0776C22.7217 15.0776 22.7066 15.0775 22.6522 15.0488C22.5663 15.0034 22.4589 14.9269 22.2326 14.7609L21.3453 15.9703ZM23.2596 14.7609C23.0333 14.9269 22.9259 15.0034 22.84 15.0488C22.7856 15.0775 22.7705 15.0776 22.7461 15.0776L22.7461 16.5776C23.3645 16.5776 23.7783 16.2407 24.1469 15.9703L23.2596 14.7609Z" fill="#99B7B6"/>
</svg>
