<svg width="24" height="26" viewBox="0 0 24 26" fill="none" xmlns="http://www.w3.org/2000/svg">
<path fill-rule="evenodd" clip-rule="evenodd" d="M10.9135 0.280582C11.5892 -0.0935279 12.4108 -0.0935271 13.0865 0.280583L22.8492 5.68574C23.5595 6.07898 24 6.82506 24 7.63479V18.3652C24 19.1749 23.5595 19.921 22.8492 20.3143L13.0865 25.7194C12.4108 26.0935 11.5892 26.0935 10.9135 25.7194L1.15076 20.3143C0.440501 19.921 0 19.1749 0 18.3652V7.63479C0 6.82506 0.440504 6.07898 1.15076 5.68574L10.9135 0.280582ZM12.0988 2.05244C12.0373 2.01843 11.9627 2.01843 11.9012 2.05244L2.13851 7.4576C2.07394 7.49335 2.0339 7.56118 2.0339 7.63479V18.3652C2.0339 18.4388 2.07394 18.5066 2.13851 18.5424L11.9012 23.9476C11.9627 23.9816 12.0373 23.9816 12.0988 23.9476L21.8615 18.5424C21.9261 18.5066 21.9661 18.4388 21.9661 18.3652V7.63479C21.9661 7.56118 21.9261 7.49335 21.8615 7.4576L12.0988 2.05244Z" fill="black"/>
<path fill-rule="evenodd" clip-rule="evenodd" d="M5.55932 13C5.55932 9.45509 8.44291 6.58137 12 6.58137C15.5571 6.58137 18.4407 9.45509 18.4407 13C18.4407 16.5449 15.5571 19.4186 12 19.4186C8.44291 19.4186 5.55932 16.5449 5.55932 13ZM12 8.60831C9.5662 8.60831 7.59322 10.5745 7.59322 13C7.59322 15.4255 9.5662 17.3917 12 17.3917C14.4338 17.3917 16.4068 15.4255 16.4068 13C16.4068 10.5745 14.4338 8.60831 12 8.60831Z" fill="black"/>
</svg>
