<svg width="30" height="30" viewBox="0 0 30 30" fill="none" xmlns="http://www.w3.org/2000/svg">
<path d="M12 15C12 16.3807 10.8807 17.5 9.5 17.5C8.11929 17.5 7 16.3807 7 15C7 13.6193 8.11929 12.5 9.5 12.5C10.8807 12.5 12 13.6193 12 15Z" stroke="white" stroke-width="1.5"/>
<path d="M17 9.5L12 13" stroke="white" stroke-width="1.5" stroke-linecap="round"/>
<path d="M17 20.5L12 17" stroke="white" stroke-width="1.5" stroke-linecap="round"/>
<path d="M22 21.5C22 22.8807 20.8807 24 19.5 24C18.1193 24 17 22.8807 17 21.5C17 20.1193 18.1193 19 19.5 19C20.8807 19 22 20.1193 22 21.5Z" stroke="white" stroke-width="1.5"/>
<path d="M22 8.5C22 9.88071 20.8807 11 19.5 11C18.1193 11 17 9.88071 17 8.5C17 7.11929 18.1193 6 19.5 6C20.8807 6 22 7.11929 22 8.5Z" stroke="white" stroke-width="1.5"/>
</svg>
